<svg xmlns="http://www.w3.org/2000/svg" viewBox="0 0 24 24" fill="white">
  <path d="M1.811 10.16c-.047 0-.058-.023-.035-.059l.246-.315c.023-.035.081-.058.128-.058h4.172c.046 0 .058.035.035.07l-.199.303c-.023.036-.082.07-.117.07zM.047 11.102c-.047 0-.059-.023-.035-.058l.245-.316c.023-.035.082-.058.129-.058h5.328c.047 0 .07.035.058.07l-.093.28c-.012.047-.058.07-.105.07zm2.828 1.075c-.047 0-.059-.035-.035-.07l.163-.292c.023-.035.07-.07.117-.07h2.337c.047 0 .07.035.07.082l-.023.28c0 .047-.047.082-.082.082zm13.139-1.312c-.737.187-1.239.327-1.963.514-.176.046-.187.058-.34-.117-.176-.199-.304-.327-.55-.444-.737-.362-1.45-.257-2.115.175-.797.514-1.204 1.274-1.192 2.22.011.99.539 1.797 1.651 1.927.843.093 1.55-.223 2.011-.83.117-.163.212-.35.321-.55h-2.36c-.259 0-.327-.163-.234-.37.163-.36.47-.97.65-1.274.035-.07.105-.187.315-.187h4.427c-.023.257-.047.515-.082.784-.187 1.217-.632 2.314-1.472 3.18-.975 1.006-2.138 1.52-3.516 1.496-1.204-.023-2.267-.4-3.143-1.193-.75-.691-1.17-1.54-1.286-2.51-.152-1.274.222-2.419.97-3.39 1.02-1.356 2.337-2.08 3.995-2.242 1.05-.09 2.034.117 2.907.68.4.257.737.597.98.996.058.093.023.14-.082.175m3.775 5.328c-1.107-.02-2.113-.515-2.625-1.355l-.187-.328-.386-.656c-.304-.468.199-.468.48-.468h1.076c.234 0 .351.117.468.304.304.504.779.832 1.355.937.539.094 1.075-.047 1.447-.457.407-.443.477-1.17.187-1.704-.27-.516-.809-.773-1.378-.928-.67-.177-1.354-.292-2-.515-.95-.317-1.704-.832-2.138-1.798-.468-1.028-.304-2.196.492-3.077.679-.75 1.587-1.169 2.637-1.252 1.218-.07 2.302.2 3.237 1.006.175.152.34.316.468.504.094.128.06.222-.07.293-.385.199-.771.398-1.157.597-.07.035-.163.023-.222-.058-.327-.444-.773-.656-1.355-.656-.564 0-1.053.257-1.262.773-.187.468-.117.934.246 1.274.327.315.75.468 1.171.585.68.164 1.378.316 2.034.538.948.328 1.637.88 1.988 1.869.443 1.239.212 2.36-.713 3.252-.68.68-1.542 1.053-2.512 1.128z"/>
</svg> 