<svg xmlns="http://www.w3.org/2000/svg" viewBox="0 0 24 24" fill="white">
  <path d="M23.8346 11.7033l-1.0073-.6236a13.7268 13.7268 0 00-.0283-.2936l.8656-.8069a.3483.3483 0 00-.1154-.578l-1.1066-.414a8.4958 8.4958 0 00-.087-.2856l.6904-.9587a.3462.3462 0 00-.2257-.5446l-1.1663-.1894a6.0403 6.0403 0 00-.1407-.2631l.49-1.0761a.3437.3437 0 00-.0566-.3456.3486.3486 0 00-.3371-.1426l-1.1845.0389c-.054-.079-.1103-.1569-.1676-.2348l.2725-1.1534a.3428.3428 0 00-.1142-.34.35.35 0 00-.362-.054l-1.1557.2651c-.0636-.0663-.1282-.1315-.1939-.1957l.0428-1.1886a.3413.3413 0 00-.1725-.314.3461.3461 0 00-.358.041l-1.0805.48c-.0708-.05-.1427-.0985-.2146-.1466L17.9387.718a.3379.3379 0 00-.2257-.2684.3519.3519 0 00-.3412.1356l-.9631.6881c-.0769-.0312-.154-.0613-.2321-.0902L15.7472.0457a.3308.3308 0 00-.2683-.2142.3511.3511 0 00-.3066.2225l-.8111.8599a9.9878 9.9878 0 00-.2391-.0258L13.5244.0356a.3372.3372 0 00-.3019-.1513.3523.3523 0 00-.2673.2236l-.6223 1.0068a13.513 13.513 0 00-.2937.0271l-.8074-.8644a.3389.3389 0 00-.5781.1155l-.4148 1.1045c-.0962.0275-.1915.0563-.2857.0871l-.9591-.689a.3376.3376 0 00-.5445.2259l-.1895 1.1661c-.0879.0457-.1748.0924-.2616.1404l-1.0772-.4882a.3414.3414 0 00-.489.3919l.039 1.1845a13.13 13.13 0 00-.2347.1675L4.7255 3.0244a.3375.3375 0 00-.3913.1142.3409.3409 0 00-.0542.3619l.2648 1.1558c-.0662.0635-.1314.1282-.1956.1938l-1.1886-.0427a.3419.3419 0 00-.314.1725.3455.3455 0 00.041.358l.48 1.0804c-.05.0708-.0984.1427-.1465.2147L1.7309 6.0615a.3348.3348 0 00-.2683.2257.3488.3488 0 00.1356.3412l.6881.9631c-.0312.0769-.0614.1539-.0902.2321L1.0566 8.2531a.3305.3305 0 00-.2142.2683.351.351 0 00.2225.3066l.8599.8111a9.9628 9.9628 0 00-.0258.2391L.9564 10.4759a.3373.3373 0 00-.1513.3019.3523.3523 0 00.2236.2673l1.0068.6224c.0079.0989.0168.1976.0271.2954l-.8644.8073a.3389.3389 0 00-.0566.2896.35.35 0 00.1721.2886l1.1045.4147c.0275.0962.0563.1915.0871.2856l-.689.9592a.3376.3376 0 00-.0389.3329.3435.3435 0 00.2648.2116l1.1661.1895c.0457.0879.0924.1748.1404.2615l-.4882 1.0773a.3414.3414 0 00.3919.489l1.1845-.039c.0544.0797.11.1584.1675.2347l-.5616 1.1845a.3422.3422 0 00.4761.4455l1.1558-.2648c.0635.0662.1281.1314.1938.1956l-.0427 1.1886a.3413.3413 0 00.1725.314.3457.3457 0 00.358-.041l1.0804-.48c.0708.05.1426.0984.2147.1465l-.5218 1.1468a.3366.3366 0 00.567.5669l.9631-.6881c.0769.0312.1539.0614.2321.0902l-.4295 1.2294a.339.339 0 00.575.5749l.8111-.8599c.0787.0096.1577.0183.2374.0258l-.1525 1.2476a.3408.3408 0 00.5692.5709l.6224-1.0068c.0989-.0079.1976-.0168.2937-.027l.8073.8643a.3388.3388 0 00.341.0567.3502.3502 0 00.2371-.1722l.4147-1.1045c.0962-.0275.1915-.0564.2857-.0871l.9591.689a.3376.3376 0 00.5445-.2259l.1895-1.1661c.0879-.0457.1748-.0923.2615-.1404l1.0773.4882a.3414.3414 0 00.489-.3919l-.039-1.1845c.0796-.0544.1584-.11.2347-.1675l1.1845.5616a.3423.3423 0 00.4455-.4761l-.2648-1.1558c.0662-.0635.1314-.1281.1956-.1938l1.1886.0427a.3412.3412 0 00.314-.1725.3456.3456 0 00-.041-.358l-.48-1.0804c.05-.0708.0984-.1427.1465-.2147l1.1468.5218a.3366.3366 0 00.5669-.567l-.6881-.9631c.0312-.0769.0614-.1539.0902-.2321l1.2294.4295a.3388.3388 0 00.5749-.575l-.8599-.8111c.0096-.0787.0183-.1576.0258-.2374l1.2476.1524a.3408.3408 0 00.5709-.5691M8.5058 5.4998a1.4488 1.4488 0 11-2.8977 0 1.4488 1.4488 0 012.8977 0M5.929 16.3047a1.2032 1.2032 0 11-2.4065 0 1.2032 1.2032 0 012.4066 0m9.5727.1448a1.4488 1.4488 0 11-2.8976 0 1.4488 1.4488 0 012.8976 0M12 3.0938a9.0234 9.0234 0 00-9.0234 9.0234c0 .2955.0148.5877.0436.876l1.8924-.2423a7.177 7.177 0 01-.0693-1.0066 7.157 7.157 0 0114.3138 0c0 .7331-.1102 1.441-.3155 2.1087l1.8345.6694a9.0173 9.0173 0 00.3239-2.7781A9.0234 9.0234 0 0012 3.0938"/>
</svg> 